HIERARCHY
ROOT Hips
{
    OFFSET 0.000000 0.000000 0.000000
    CHANNELS 6 Xposition Yposition Zposition Zrotation Xrotation Yrotation
    JOINT Spine
    {
        OFFSET -0.000000 14.517291 0.000000
        CHANNELS 3 Zrotation Xrotation Yrotation
        JOINT Spine1
        {
            OFFSET -0.000000 37.558300 0.000000
            CHANNELS 3 Zrotation Xrotation Yrotation
            JOINT Neck
            {
                OFFSET -0.000000 37.404057 3.400369
                CHANNELS 3 Zrotation Xrotation Yrotation
                JOINT Head
                {
                    OFFSET -0.000000 24.785618 -3.540803
                    CHANNELS 3 Zrotation Xrotation Yrotation
                    End Site
                    {
                        OFFSET -0.000000 35.408028 0.000000
                    }
                }
            }
            JOINT LeftShoulder
            {
                OFFSET 6.992933 33.973492 -0.192664
                CHANNELS 3 Zrotation Xrotation Yrotation
                JOINT LeftArm
                {
                    OFFSET 21.527611 0.000000 0.000000
                    CHANNELS 3 Zrotation Xrotation Yrotation
                    JOINT LeftForeArm
                    {
                        OFFSET 56.353916 0.000000 0.000000
                        CHANNELS 3 Zrotation Xrotation Yrotation
                        JOINT LeftHand
                        {
                            OFFSET 47.774071 0.000000 0.000000
                            CHANNELS 3 Zrotation Xrotation Yrotation
                            End Site
                            {
                                OFFSET 26.556021 0.000000 0.000000
                            }
                        }
                    }
                }
            }
            JOINT RightShoulder
            {
                OFFSET -7.065357 33.973492 -0.192664
                CHANNELS 3 Zrotation Xrotation Yrotation
                JOINT RightArm
                {
                    OFFSET -21.527611 0.000000 0.000000
                    CHANNELS 3 Zrotation Xrotation Yrotation
                    JOINT RightForeArm
                    {
                        OFFSET -56.353916 0.000000 0.000000
                        CHANNELS 3 Zrotation Xrotation Yrotation
                        JOINT RightHand
                        {
                            OFFSET -47.774071 0.000000 0.000000
                            CHANNELS 3 Zrotation Xrotation Yrotation
                            End Site
                            {
                                OFFSET -26.556021 0.000000 0.000000
                            }
                        }
                    }
                }
            }
        }
    }
    JOINT LeftUpLeg
    {
        OFFSET 17.704014 0.000000 0.000000
        CHANNELS 3 Zrotation Xrotation Yrotation
        JOINT LeftLeg
        {
            OFFSET -0.000000 -81.181816 0.000000
            CHANNELS 3 Zrotation Xrotation Yrotation
            JOINT LeftFoot
            {
                OFFSET -0.000000 -62.821102 0.000000
                CHANNELS 3 Zrotation Xrotation Yrotation
                JOINT LeftToeBase
                {
                    OFFSET -0.000000 -11.507608 26.556021
                    CHANNELS 3 Zrotation Xrotation Yrotation
                    End Site
                    {
                        OFFSET -0.000000 0.000000 7.081605
                    }
                }
            }
        }
    }
    JOINT RightUpLeg
    {
        OFFSET -17.704014 0.000000 0.000000
        CHANNELS 3 Zrotation Xrotation Yrotation
        JOINT RightLeg
        {
            OFFSET -0.000000 -81.181816 0.000000
            CHANNELS 3 Zrotation Xrotation Yrotation
            JOINT RightFoot
            {
                OFFSET -0.000000 -62.821102 0.000000
                CHANNELS 3 Zrotation Xrotation Yrotation
                JOINT RightToeBase
                {
                    OFFSET -0.000000 -11.507608 26.556021
                    CHANNELS 3 Zrotation Xrotation Yrotation
                    End Site
                    {
                        OFFSET -0.000000 0.000000 7.081605
                    }
                }
            }
        }
    }
}
MOTION
Frames:    11
Frame Time:    0.008333
-9.687482    153.336624    -62.568562    -11.841894    -11.272339    23.938808    -7.104785    4.817535    -1.382976    -6.687719    -1.037870    -0.626627    0.332907    0.571567    -14.236471    21.077585    3.798115    -12.610939    2.369398    9.567503    -14.273232    -34.180817    22.642466    -49.818089    -0.821473    -31.445557    -117.487961    -6.122498    -32.224514    -8.146616    1.558610    12.461461    -5.994329    32.996891    17.981474    46.561760    -5.361630    10.922428    49.763554    -19.341198    7.349625    34.710480    33.462509    -0.091281    3.889164    -17.461098    43.786964    -15.492558    5.823409    -34.414116    45.278893    0.000000    0.000000    0.000000    0.129204    -17.672153    -2.126865    7.883216    13.323366    -8.791533    4.965724    15.797484    -14.356229    0.000000    0.000000    0.000000    
-9.474362    153.410095    -62.532837    -11.577266    -11.139568    23.941467    -6.994989    4.687078    -1.422838    -6.585592    -1.011618    -0.633204    0.436792    0.536324    -14.178637    20.909302    3.802550    -12.584443    2.402125    9.562360    -14.236313    -34.224377    22.736568    -49.919933    -1.185077    -31.484755    -117.722939    -6.226691    -32.787815    -7.760602    1.571937    12.433228    -6.018340    32.950211    17.940830    46.550392    -5.289259    10.829591    49.810455    -19.273754    7.286427    34.495975    33.029572    0.135191    3.960691    -17.253944    43.436539    -15.646338    5.830286    -34.317173    45.273495    0.000000    0.000000    0.000000    -0.180756    -17.637482    -2.190250    7.814736    13.332301    -8.717134    4.991263    15.730861    -14.303635    0.000000    0.000000    0.000000    
-9.262121    153.479675    -62.491096    -11.308926    -11.026649    23.942444    -6.890410    4.593071    -1.456469    -6.463688    -1.028890    -0.641026    0.487756    0.554405    -14.139352    20.818214    3.808264    -12.561390    2.431468    9.592128    -14.243233    -34.288731    22.702925    -49.918007    -1.234264    -31.313929    -117.753693    -6.185017    -32.692867    -7.731308    1.596576    12.427944    -6.037698    32.906960    17.853680    46.518215    -5.068810    10.643802    49.911797    -19.087406    7.154830    33.986916    32.588074    0.384565    4.044727    -16.996231    43.078697    -15.802083    5.831129    -34.223057    45.241154    0.000000    0.000000    0.000000    -0.485875    -17.579632    -2.216698    7.761787    13.327004    -8.661330    5.025393    15.664223    -14.282022    0.000000    0.000000    0.000000    
-9.069380    153.552643    -62.443661    -11.059649    -10.902740    23.937017    -6.795569    4.480387    -1.500269    -6.294410    -1.040898    -0.651096    0.529755    0.531592    -14.096447    20.679256    3.850691    -12.545288    2.408850    9.573948    -14.251142    -34.338570    22.772045    -49.876095    -1.279939    -31.259781    -117.814537    -6.192129    -32.707088    -7.684874    1.574472    12.435818    -6.036944    32.898090    17.739101    46.488621    -4.807878    10.422489    50.125641    -18.931301    7.050094    32.993717    32.181648    0.596305    4.092551    -16.820757    42.750381    -15.923853    5.833431    -34.102829    45.252064    0.000000    0.000000    0.000000    -0.757858    -17.545286    -2.250503    7.682480    13.331374    -8.595732    5.035007    15.605068    -14.245223    0.000000    0.000000    0.000000    
-8.847462    153.621155    -62.394886    -10.787960    -10.788027    23.932547    -6.709269    4.347936    -1.519135    -6.160097    -0.990427    -0.649629    0.643099    0.521344    -14.042809    20.520031    3.816913    -12.516597    2.424297    9.472289    -14.180590    -34.341885    22.999216    -49.960274    -1.136060    -31.318663    -117.717087    -6.256145    -32.558918    -7.654511    1.613990    12.407928    -6.062011    32.823109    17.698854    46.424328    -5.201201    10.865355    49.883583    -19.440296    7.224646    34.540699    31.749186    0.783884    4.079198    -16.715952    42.391006    -15.973108    5.867032    -33.909386    45.352398    0.000000    0.000000    0.000000    -1.066776    -17.486448    -2.260102    7.629794    13.330968    -8.529403    5.050539    15.522196    -14.225903    0.000000    0.000000    0.000000    
-8.637879    153.682480    -62.356453    -10.540308    -10.669205    23.927834    -6.583026    4.285776    -1.596807    -6.013806    -1.057345    -0.674986    0.617036    0.509657    -13.989941    20.505871    3.867729    -12.467866    2.391533    9.522279    -14.094400    -34.345020    23.074955    -49.965038    -1.202919    -31.222610    -117.734665    -6.357428    -32.527306    -8.188055    1.592305    12.377439    -6.013961    32.850285    17.539053    46.333687    -5.141021    11.017775    49.975075    -19.288198    7.378964    34.676247    31.342049    1.001730    4.057535    -16.610525    42.038139    -16.014215    5.897634    -33.810520    45.393082    0.000000    0.000000    0.000000    -1.361389    -17.441147    -2.209203    7.606155    13.312154    -8.476287    5.098915    15.439187    -14.275591    0.000000    0.000000    0.000000    
-8.430745    153.743576    -62.312256    -10.297350    -10.535170    23.916016    -6.468493    4.149978    -1.612559    -5.899767    -1.055980    -0.675064    0.722284    0.500986    -13.964280    20.361481    3.900218    -12.477736    2.433728    9.541222    -14.142738    -34.414188    23.078419    -49.967339    -1.219166    -31.117487    -117.745445    -6.341795    -32.448418    -8.173684    1.631883    12.363518    -6.065505    32.777290    17.528502    46.312180    -5.223100    10.974797    49.982857    -19.255230    7.371407    34.747097    30.944496    1.216609    4.063050    -16.521994    41.679623    -16.055765    5.943382    -33.688751    45.415287    0.000000    0.000000    0.000000    -1.644300    -17.417515    -2.177384    7.553708    13.312611    -8.400361    5.114952    15.348039    -14.295095    0.000000    0.000000    0.000000    
-8.215096    153.808090    -62.264477    -10.038636    -10.402250    23.908163    -6.365007    4.028017    -1.655077    -5.762728    -1.036621    -0.683350    0.785082    0.447594    -13.915220    20.224453    3.925225    -12.454905    2.453637    9.544074    -14.111241    -34.451160    23.125681    -50.011368    -1.224095    -31.036112    -117.758995    -6.395198    -32.374039    -8.139771    1.631238    12.358920    -6.112177    32.773983    17.373642    46.321590    -5.123613    11.075474    50.024410    -19.340588    7.415656    34.672935    30.518177    1.443578    4.090397    -16.375902    41.314041    -16.108868    5.925926    -33.587147    45.391823    0.000000    0.000000    0.000000    -1.941985    -17.382301    -2.134786    7.502028    13.305109    -8.347758    5.158161    15.252948    -14.325450    0.000000    0.000000    0.000000    
-7.999663    153.870834    -62.218231    -9.792933    -10.284467    23.908388    -6.251194    3.929129    -1.726734    -5.603394    -1.034154    -0.702509    0.795332    0.440045    -13.871171    20.182438    3.916198    -12.413013    2.474593    9.545991    -14.108511    -34.569672    23.112219    -49.961330    -1.264091    -30.887720    -117.821854    -6.449306    -32.282375    -8.147872    1.617862    12.350013    -6.113943    32.733879    17.294268    46.303654    -5.104019    11.080817    50.093628    -19.353336    7.415242    34.653751    30.117674    1.666516    4.101296    -16.251770    40.956364    -16.150393    5.935248    -33.472519    45.377296    0.000000    0.000000    0.000000    -2.226436    -17.334282    -2.111449    7.450018    13.288463    -8.324687    5.200850    15.167401    -14.328543    0.000000    0.000000    0.000000    
-7.798475    153.927582    -62.176533    -9.568373    -10.151959    23.909702    -6.111018    3.846955    -1.784123    -5.503600    -1.106153    -0.721064    0.871904    0.456655    -13.840640    20.100023    3.943437    -12.405662    2.526026    9.602040    -14.100806    -34.585789    23.142040    -49.996708    -1.264531    -30.803675    -117.823616    -6.453907    -32.198284    -8.182309    1.678793    12.334652    -6.129745    32.707188    17.194071    46.233707    -5.037601    11.118926    50.125042    -19.206612    7.470682    34.657898    29.746822    1.853853    4.127799    -16.156147    40.621365    -16.159025    5.926928    -33.364365    45.329929    0.000000    0.000000    0.000000    -2.499923    -17.312914    -2.096492    7.401257    13.278565    -8.298155    5.215049    15.089950    -14.310414    0.000000    0.000000    0.000000    
-7.588671    153.988190    -62.132019    -9.333880    -10.021523    23.912514    -5.988458    3.727478    -1.846849    -5.353482    -1.088109    -0.736144    0.908799    0.409626    -13.792085    19.988918    3.955030    -12.374358    2.518157    9.593825    -14.087104    -34.584229    23.224470    -50.004414    -1.252321    -30.813087    -117.845055    -6.565858    -32.182423    -8.222561    1.659295    12.283415    -6.116935    32.778015    17.011292    46.141113    -4.906524    11.238440    50.199451    -19.337313    7.482029    34.715538    29.358816    2.046659    4.184930    -16.010185    40.298000    -16.224966    5.874569    -33.279606    45.268158    0.000000    0.000000    0.000000    -2.793308    -17.276081    -2.059398    7.378990    13.248676    -8.295225    5.246740    15.012699    -14.320601    0.000000    0.000000    0.000000    
